<svg viewBox="0 0 152 35" fill="none" xmlns="http://www.w3.org/2000/svg">
<path d="M0.105094 33.9514C0.105043 33.8355 0.105 33.7389 0.104948 33.623C0.100136 22.8045 0.0953243 11.9859 0.0905211 1.18673C0.090332 0.761719 0.090332 0.761719 0.549256 0.781274C3.80348 0.99546 6.49551 3.50829 6.53857 6.52205C6.60303 10.7336 6.56318 14.9451 6.56504 19.1372C6.5651 19.2532 6.56515 19.3691 6.56518 19.4463C11.6112 14.7738 16.6572 10.1012 21.7032 5.4287C21.1608 5.42842 20.5559 5.42811 19.9717 5.29258C17.8647 4.82784 16.3203 3.16562 16.1317 1.17569C16.1107 0.905214 16.1315 0.769993 16.507 0.770187C21.3673 0.792013 26.2068 0.794509 31.0671 0.777697C31.3592 0.777848 31.4635 0.816539 31.4636 1.12564C31.4448 5.62691 31.4468 10.1089 31.4696 14.6102C31.4698 14.9193 31.4072 14.9965 31.0526 14.977C28.758 14.8406 26.692 13.0236 26.4825 10.8791C26.4406 10.512 26.4404 10.1449 26.4194 9.8165C17.6828 17.8873 8.9461 25.958 0.230287 34.0288C0.188559 34.0094 0.146822 33.9708 0.105094 33.9514Z" fill="url(#paint0_linear)"/>
<path d="M31.4189 34.0598C29.0826 34.0588 26.7881 34.1157 24.5143 34.0375C22.9081 33.9788 21.531 33.3214 20.3831 32.2585C18.1708 30.1905 15.9378 28.1419 13.7255 26.0932C13.5377 25.9193 13.5585 25.842 13.7253 25.6875C15.1014 24.4132 16.4983 23.1388 17.8744 21.8644C17.9994 21.7485 18.0828 21.6713 18.2707 21.8259C22.6325 25.8652 26.9944 29.9045 31.3563 33.9438C31.3563 33.9632 31.3772 34.0018 31.4189 34.0598Z" fill="url(#paint1_linear)"/>
<path d="M55.2864 17.5076L61.3754 26.9777H57.3492L53.1739 20.2205L50.7632 23.4861V26.9777H47.3086V9.09255H50.7632V19.0901L57.4487 9.09255H60.9281L55.2864 17.5076Z" fill="white"/>
<path d="M73.3556 26.9777H71.1934L70.1993 25.2444L66.7447 27.1284C64.8227 27.1284 63.5303 26.4251 62.8676 25.0184C62.5362 24.3318 62.3043 23.5949 62.1717 22.8078C62.0557 22.004 61.9977 21.1751 61.9977 20.321C61.9977 19.4502 62.006 18.8138 62.0226 18.4119C62.0392 17.9933 62.0806 17.516 62.1469 16.9801C62.2131 16.4275 62.3043 15.9669 62.4202 15.5985C62.5528 15.2301 62.735 14.8533 62.967 14.4681C63.199 14.0662 63.4806 13.748 63.812 13.5136C64.5576 12.9945 65.5269 12.7349 66.7198 12.7349H70.1247L73.3556 12.5339V26.9777ZM70.1247 22.4059V15.6739H67.6642C66.753 15.6739 66.1151 16.0256 65.7506 16.7289C65.4026 17.4323 65.2286 18.4873 65.2286 19.894C65.2286 21.2839 65.3943 22.2636 65.7257 22.833C66.0736 23.4023 66.7198 23.687 67.6642 23.687L70.1247 22.4059Z" fill="white"/>
<path d="M95.1562 26.9777H91.9253V18.0602C91.9253 17.1727 91.8176 16.5531 91.6022 16.2014C91.4034 15.8497 91.0472 15.6739 90.5336 15.6739L87.6257 16.9047V26.9777H84.3948V18.0602C84.3948 16.4693 83.8481 15.6739 82.7545 15.6739L80.0953 16.9047V26.9777H76.8644V12.6344H79.2751L80.0207 14.3425L83.7487 12.4837C85.041 12.4837 86.0186 13.1201 86.6813 14.3928L91.304 12.4837C92.5964 12.4837 93.5573 12.9275 94.187 13.815C94.8331 14.6858 95.1562 15.8665 95.1562 17.3569V26.9777Z" fill="white"/>
<path d="M104.699 27.0028L101.891 26.9777C100.648 26.9777 99.7038 26.6093 99.0576 25.8724C98.428 25.1356 98.1132 24.2564 98.1132 23.2349V8.08777H101.344V14.4179L105.196 12.6093C106.671 12.6093 107.756 13.0112 108.452 13.815C109.065 14.5351 109.446 15.699 109.595 17.3067C109.645 17.9765 109.67 18.8055 109.67 19.7935C109.67 24.5997 108.013 27.0028 104.699 27.0028ZM102.164 24.1894H103.755C105.544 24.1894 106.439 22.7241 106.439 19.7935C106.439 18.3031 106.298 17.2648 106.016 16.6787C105.751 16.0925 105.163 15.7995 104.252 15.7995L101.344 17.382V23.0339C101.344 23.7038 101.617 24.0889 102.164 24.1894Z" fill="white"/>
<path d="M115.773 26.9777H112.542V13.1619H115.773V26.9777Z" fill="white"/>
<path d="M129.129 23.0088V23.3856C129.029 24.6416 128.499 25.5877 127.538 26.2241C126.594 26.8605 125.409 27.1787 123.984 27.1787C121.88 27.1787 120.405 26.7935 119.56 26.0232C118.782 25.3198 118.392 24.2815 118.392 22.9083V22.6069H121.325C121.325 23.3772 121.524 23.9047 121.921 24.1894C122.319 24.4741 123.007 24.6165 123.984 24.6165C125.31 24.6165 125.973 24.1308 125.973 23.1595C125.973 22.3557 125.741 21.8198 125.277 21.5519C125.061 21.4179 124.788 21.3174 124.456 21.2504L121.946 20.8234C119.759 20.4717 118.666 19.0901 118.666 16.6787C118.666 15.339 119.146 14.3007 120.107 13.5638C121.085 12.8102 122.319 12.4335 123.81 12.4335C127.207 12.4335 128.905 13.9155 128.905 16.8796V17.2062H126.097C126.064 16.4191 125.857 15.8832 125.475 15.5985C125.094 15.3138 124.556 15.1715 123.86 15.1715C123.181 15.1715 122.667 15.3138 122.319 15.5985C121.971 15.8665 121.797 16.1679 121.797 16.5028C121.797 17.4574 122.178 18.0016 122.94 18.1356L125.948 18.6882C128.068 19.0901 129.129 20.5303 129.129 23.0088Z" fill="white"/>
<path d="M137.901 26.9777H135.888C134.662 26.9777 133.726 26.6093 133.08 25.8724C132.45 25.1356 132.135 24.2564 132.135 23.2349V15.699H130.769V13.2122H132.135V10.3988H135.366V13.2122H137.653V15.699H135.366V23.0339C135.366 23.821 135.739 24.2145 136.485 24.2145H137.901V26.9777Z" fill="white"/>
<path d="M151.32 26.9777H149.158L148.164 25.2444L144.709 27.1284C142.787 27.1284 141.495 26.4251 140.832 25.0184C140.501 24.3318 140.269 23.5949 140.136 22.8078C140.02 22.004 139.962 21.1751 139.962 20.321C139.962 19.4502 139.97 18.8138 139.987 18.4119C140.004 17.9933 140.045 17.516 140.111 16.9801C140.177 16.4275 140.269 15.9669 140.385 15.5985C140.517 15.2301 140.699 14.8533 140.931 14.4681C141.163 14.0662 141.445 13.748 141.776 13.5136C142.522 12.9945 143.491 12.7349 144.684 12.7349H148.089L151.32 12.5339V26.9777ZM148.089 22.4059V15.6739H145.629C144.717 15.6739 144.079 16.0256 143.715 16.7289C143.367 17.4323 143.193 18.4873 143.193 19.894C143.193 21.2839 143.359 22.2636 143.69 22.833C144.038 23.4023 144.684 23.687 145.629 23.687L148.089 22.4059Z" fill="white"/>
<path d="M115.599 7.53994C115.37 7.29912 114.87 7.17871 114.099 7.17871C113.329 7.17871 112.821 7.29912 112.575 7.53994C112.345 7.7647 112.23 8.24634 112.23 8.98485C112.23 9.72336 112.345 10.213 112.575 10.4538C112.821 10.6947 113.321 10.8151 114.075 10.8151C114.845 10.8151 115.345 10.7027 115.575 10.4779C115.82 10.2371 115.943 9.74744 115.943 9.00893C115.943 8.25437 115.829 7.7647 115.599 7.53994Z" fill="url(#paint2_linear)"/>
<defs>
<linearGradient id="paint0_linear" x1="15.7769" y1="0.76981" x2="15.7597" y2="34.0368" gradientUnits="userSpaceOnUse">
<stop stop-color="#00DFC4"/>
<stop offset="0.740331" stop-color="#00B5FF"/>
</linearGradient>
<linearGradient id="paint1_linear" x1="22.5012" y1="21.7412" x2="22.4959" y2="34.0768" gradientUnits="userSpaceOnUse">
<stop stop-color="#00DFC4"/>
<stop offset="0.740331" stop-color="#00B5FF"/>
</linearGradient>
<linearGradient id="paint2_linear" x1="114.087" y1="7.17871" x2="114.087" y2="10.8151" gradientUnits="userSpaceOnUse">
<stop stop-color="#00DFC4"/>
<stop offset="0.740331" stop-color="#00B5FF"/>
</linearGradient>
</defs>
</svg>
